<svg width="128" height="128" viewBox="0 0 128 128" fill="none" xmlns="http://www.w3.org/2000/svg">
<g clip-path="url(#clip0_1413_13639)">
<g filter="url(#filter0_di_1413_13639)">
<mask id="path-1-outside-1_1413_13639" maskUnits="userSpaceOnUse" x="2" y="29.5" width="58" height="69" fill="black">
<rect fill="white" x="2" y="29.5" width="58" height="69"/>
<path d="M4.63574 31.7246H18.8301L44.626 76.9443V31.7246H57.2383V96.5H43.7031L17.248 50.4893V96.5H4.63574V31.7246Z"/>
</mask>
<path d="M4.63574 31.7246H18.8301L44.626 76.9443V31.7246H57.2383V96.5H43.7031L17.248 50.4893V96.5H4.63574V31.7246Z" fill="white"/>
<path d="M4.63574 31.7246V29.7246H2.63574V31.7246H4.63574ZM18.8301 31.7246L20.5673 30.7336L19.9917 29.7246H18.8301V31.7246ZM44.626 76.9443L42.8888 77.9353L46.626 84.4866V76.9443H44.626ZM44.626 31.7246V29.7246H42.626V31.7246H44.626ZM57.2383 31.7246H59.2383V29.7246H57.2383V31.7246ZM57.2383 96.5V98.5H59.2383V96.5H57.2383ZM43.7031 96.5L41.9693 97.4969L42.546 98.5H43.7031V96.5ZM17.248 50.4893L18.9819 49.4923L15.248 42.9985V50.4893H17.248ZM17.248 96.5V98.5H19.248V96.5H17.248ZM4.63574 96.5H2.63574V98.5H4.63574V96.5ZM4.63574 33.7246H18.8301V29.7246H4.63574V33.7246ZM17.0929 32.7156L42.8888 77.9353L46.3632 75.9533L20.5673 30.7336L17.0929 32.7156ZM46.626 76.9443V31.7246H42.626V76.9443H46.626ZM44.626 33.7246H57.2383V29.7246H44.626V33.7246ZM55.2383 31.7246V96.5H59.2383V31.7246H55.2383ZM57.2383 94.5H43.7031V98.5H57.2383V94.5ZM45.437 95.5031L18.9819 49.4923L15.5142 51.4862L41.9693 97.4969L45.437 95.5031ZM15.248 50.4893V96.5H19.248V50.4893H15.248ZM17.248 94.5H4.63574V98.5H17.248V94.5ZM6.63574 96.5V31.7246H2.63574V96.5H6.63574Z" fill="url(#paint0_linear_1413_13639)" mask="url(#path-1-outside-1_1413_13639)"/>
</g>
<g filter="url(#filter1_di_1413_13639)">
<mask id="path-3-outside-2_1413_13639" maskUnits="userSpaceOnUse" x="59" y="29.5" width="68" height="69" fill="black">
<rect fill="white" x="59" y="29.5" width="68" height="69"/>
<path d="M104.79 31.7246H124.258V96.5H111.646V52.6865C111.646 51.4268 111.66 49.6689 111.689 47.4131C111.719 45.1279 111.733 43.3701 111.733 42.1396L99.4727 96.5H86.333L74.1602 42.1396C74.1602 43.3701 74.1748 45.1279 74.2041 47.4131C74.2334 49.6689 74.248 51.4268 74.248 52.6865V96.5H61.6357V31.7246H81.3232L93.1006 82.6572L104.79 31.7246Z"/>
</mask>
<path d="M104.79 31.7246H124.258V96.5H111.646V52.6865C111.646 51.4268 111.66 49.6689 111.689 47.4131C111.719 45.1279 111.733 43.3701 111.733 42.1396L99.4727 96.5H86.333L74.1602 42.1396C74.1602 43.3701 74.1748 45.1279 74.2041 47.4131C74.2334 49.6689 74.248 51.4268 74.248 52.6865V96.5H61.6357V31.7246H81.3232L93.1006 82.6572L104.79 31.7246Z" fill="white"/>
<path d="M104.79 31.7246V29.7246H103.197L102.841 31.2772L104.79 31.7246ZM124.258 31.7246H126.258V29.7246H124.258V31.7246ZM124.258 96.5V98.5H126.258V96.5H124.258ZM111.646 96.5H109.646V98.5H111.646V96.5ZM111.689 47.4131L113.689 47.4391L113.689 47.4387L111.689 47.4131ZM111.733 42.1396H113.733L109.782 41.6996L111.733 42.1396ZM99.4727 96.5V98.5H101.072L101.424 96.94L99.4727 96.5ZM86.333 96.5L84.3813 96.937L84.7313 98.5H86.333V96.5ZM74.1602 42.1396L76.1118 41.7026L72.1602 42.1396H74.1602ZM74.2041 47.4131L72.2043 47.4387L72.2043 47.4391L74.2041 47.4131ZM74.248 96.5V98.5H76.248V96.5H74.248ZM61.6357 96.5H59.6357V98.5H61.6357V96.5ZM61.6357 31.7246V29.7246H59.6357V31.7246H61.6357ZM81.3232 31.7246L83.2718 31.274L82.9135 29.7246H81.3232V31.7246ZM93.1006 82.6572L91.152 83.1078L95.0499 83.1046L93.1006 82.6572ZM104.79 33.7246H124.258V29.7246H104.79V33.7246ZM122.258 31.7246V96.5H126.258V31.7246H122.258ZM124.258 94.5H111.646V98.5H124.258V94.5ZM113.646 96.5V52.6865H109.646V96.5H113.646ZM113.646 52.6865C113.646 51.4396 113.66 49.6919 113.689 47.4391L109.69 47.3871C109.66 49.646 109.646 51.4139 109.646 52.6865H113.646ZM113.689 47.4387C113.719 45.1509 113.733 43.383 113.733 42.1396H109.733C109.733 43.3572 109.719 45.1049 109.69 47.3874L113.689 47.4387ZM109.782 41.6996L97.5217 96.06L101.424 96.94L113.684 42.5797L109.782 41.6996ZM99.4727 94.5H86.333V98.5H99.4727V94.5ZM88.2847 96.063L76.1118 41.7026L72.2085 42.5767L84.3813 96.937L88.2847 96.063ZM72.1602 42.1396C72.1602 43.383 72.1749 45.1509 72.2043 47.4387L76.2039 47.3874C76.1747 45.1049 76.1602 43.3572 76.1602 42.1396H72.1602ZM72.2043 47.4391C72.2335 49.6919 72.248 51.4396 72.248 52.6865H76.248C76.248 51.4139 76.2333 49.646 76.2039 47.3871L72.2043 47.4391ZM72.248 52.6865V96.5H76.248V52.6865H72.248ZM74.248 94.5H61.6357V98.5H74.248V94.5ZM63.6357 96.5V31.7246H59.6357V96.5H63.6357ZM61.6357 33.7246H81.3232V29.7246H61.6357V33.7246ZM79.3747 32.1752L91.152 83.1078L95.0492 82.2066L83.2718 31.274L79.3747 32.1752ZM95.0499 83.1046L106.739 32.172L102.841 31.2772L91.1513 82.2098L95.0499 83.1046Z" fill="url(#paint1_linear_1413_13639)" mask="url(#path-3-outside-2_1413_13639)"/>
</g>
</g>
<defs>
<filter id="filter0_di_1413_13639" x="0.635742" y="31.5928" width="60.6025" height="72.9072" filterUnits="userSpaceOnUse" color-interpolation-filters="sRGB">
<feFlood flood-opacity="0" result="BackgroundImageFix"/>
<feColorMatrix in="SourceAlpha" type="matrix" values="0 0 0 0 0 0 0 0 0 0 0 0 0 0 0 0 0 0 127 0" result="hardAlpha"/>
<feOffset dy="4"/>
<feGaussianBlur stdDeviation="2"/>
<feComposite in2="hardAlpha" operator="out"/>
<feColorMatrix type="matrix" values="0 0 0 0 0 0 0 0 0 0 0 0 0 0 0 0 0 0 0.25 0"/>
<feBlend mode="normal" in2="BackgroundImageFix" result="effect1_dropShadow_1413_13639"/>
<feBlend mode="normal" in="SourceGraphic" in2="effect1_dropShadow_1413_13639" result="shape"/>
<feColorMatrix in="SourceAlpha" type="matrix" values="0 0 0 0 0 0 0 0 0 0 0 0 0 0 0 0 0 0 127 0" result="hardAlpha"/>
<feOffset dy="4"/>
<feGaussianBlur stdDeviation="2"/>
<feComposite in2="hardAlpha" operator="arithmetic" k2="-1" k3="1"/>
<feColorMatrix type="matrix" values="0 0 0 0 0.533333 0 0 0 0 0.227451 0 0 0 0 0.917647 0 0 0 0.45 0"/>
<feBlend mode="normal" in2="shape" result="effect2_innerShadow_1413_13639"/>
</filter>
<filter id="filter1_di_1413_13639" x="57.6357" y="31.7246" width="70.6221" height="72.7754" filterUnits="userSpaceOnUse" color-interpolation-filters="sRGB">
<feFlood flood-opacity="0" result="BackgroundImageFix"/>
<feColorMatrix in="SourceAlpha" type="matrix" values="0 0 0 0 0 0 0 0 0 0 0 0 0 0 0 0 0 0 127 0" result="hardAlpha"/>
<feOffset dy="4"/>
<feGaussianBlur stdDeviation="2"/>
<feComposite in2="hardAlpha" operator="out"/>
<feColorMatrix type="matrix" values="0 0 0 0 0 0 0 0 0 0 0 0 0 0 0 0 0 0 0.25 0"/>
<feBlend mode="normal" in2="BackgroundImageFix" result="effect1_dropShadow_1413_13639"/>
<feBlend mode="normal" in="SourceGraphic" in2="effect1_dropShadow_1413_13639" result="shape"/>
<feColorMatrix in="SourceAlpha" type="matrix" values="0 0 0 0 0 0 0 0 0 0 0 0 0 0 0 0 0 0 127 0" result="hardAlpha"/>
<feOffset dy="4"/>
<feGaussianBlur stdDeviation="2"/>
<feComposite in2="hardAlpha" operator="arithmetic" k2="-1" k3="1"/>
<feColorMatrix type="matrix" values="0 0 0 0 0.533333 0 0 0 0 0.227451 0 0 0 0 0.917647 0 0 0 0.45 0"/>
<feBlend mode="normal" in2="shape" result="effect2_innerShadow_1413_13639"/>
</filter>
<linearGradient id="paint0_linear_1413_13639" x1="41.23" y1="53.925" x2="21.0824" y2="74.3826" gradientUnits="userSpaceOnUse">
<stop stop-color="#883AEA"/>
<stop offset="1"/>
</linearGradient>
<linearGradient id="paint1_linear_1413_13639" x1="104.125" y1="53.925" x2="84.1796" y2="76.939" gradientUnits="userSpaceOnUse">
<stop stop-color="#883AEA"/>
<stop offset="1"/>
</linearGradient>
<clipPath id="clip0_1413_13639">
<rect width="128" height="128" fill="white"/>
</clipPath>
</defs>
</svg>
